<?xml version="1.0" encoding="UTF-8"?><svg xmlns="http://www.w3.org/2000/svg" xmlns:xlink="http://www.w3.org/1999/xlink" contentScriptType="text/ecmascript" width="375" zoomAndPan="magnify" contentStyleType="text/css" viewBox="0 0 375 374.999991" height="374.999991" preserveAspectRatio="xMidYMid meet" version="1.0"><path fill="rgb(100%, 100%, 100%)" d="M 94.125 262.324219 C 61.324219 233.890625 45.566406 196.324219 43.539062 162.625 C 38.164062 73.21875 120.667969 53.421875 159.199219 112.582031 C 178.003906 141.457031 182.8125 178.546875 182.867188 178.636719 C 192.699219 137.769531 214.449219 88.554688 252.769531 70.785156 C 315.574219 41.667969 381.382812 145.5625 304.589844 247.476562 C 257.367188 310.148438 204.804688 316.914062 189.863281 320.15625 C 186.898438 320.800781 185.015625 318.945312 185.039062 318.144531 C 185.109375 315.671875 215.234375 316.058594 251.359375 290.132812 C 388.476562 191.730469 314.386719 23.132812 238.71875 86.851562 C 204.898438 115.332031 187.992188 159.082031 185.539062 201.414062 C 185.433594 203.25 184.949219 203.890625 183.125 204.117188 C 181.097656 204.371094 180.058594 203.535156 179.726562 201.386719 C 175.207031 171.976562 168.070312 140.523438 155.015625 117.484375 C 125.125 64.730469 56.742188 72.402344 49.328125 141.425781 C 37.535156 251.289062 181.367188 351.632812 241.789062 247.488281 C 254.628906 225.355469 261.683594 198.519531 261.683594 173.398438 C 254.863281 173.75 247.847656 173.546875 241.179688 172.375 C 228.015625 170.058594 219.304688 154.558594 262.101562 154.558594 C 262.101562 152.3125 262.398438 135.398438 262.640625 127.214844 C 262.84375 120.171875 266.378906 115.800781 273.699219 116.96875 C 289.683594 119.523438 287.980469 142.527344 289.140625 154.070312 C 301.007812 153.21875 297.601562 153.121094 302.765625 152.699219 C 316.914062 151.546875 318.644531 164.324219 312.917969 168.238281 C 307.878906 171.679688 305.082031 171.417969 289.074219 172.863281 C 286.785156 173.070312 288.679688 201.933594 260.351562 243.605469 C 216.921875 307.484375 150.832031 311.480469 94.125 262.324219 " fill-opacity="1" fill-rule="nonzero"/></svg>