<svg xmlns="http://www.w3.org/2000/svg" width="1170" height="1170" viewBox="0 0 1170 1170">
  <g id="logo" transform="translate(-985 -795)">
    <rect id="spacer" width="1170" height="1170" transform="translate(985 795)" fill="#fff" opacity="0"/>
    <path id="prayers" d="M324.873,912.823c-115.251-99.906-170.618-231.9-177.742-350.309-18.886-314.143,271-383.7,406.39-175.834,66.073,101.457,82.969,231.778,83.161,232.093,34.546-143.593,110.969-316.517,245.613-378.953,220.674-102.308,451.9,262.742,182.079,620.833-165.924,220.208-350.611,243.979-403.11,255.371-10.417,2.264-17.033-4.255-16.951-7.069.247-8.688,106.1-7.329,233.027-98.423,481.782-345.752,221.456-938.146-44.415-714.26C714.092,396.343,654.69,550.066,646.07,698.806c-.37,6.451-2.072,8.7-8.482,9.5-7.123.892-10.774-2.045-11.941-9.594-15.88-103.337-40.956-213.853-86.826-294.8-105.025-185.359-345.3-158.4-371.35,84.122-41.436,386.022,463.94,738.6,676.241,372.667,45.115-77.767,69.9-172.059,69.9-260.326-23.964,1.235-48.615.522-72.044-3.6-46.254-8.139-76.861-62.6,73.512-62.6,0-7.892,1.043-67.322,1.894-96.076.714-24.747,13.135-40.105,38.856-36,56.164,8.976,50.18,89.8,54.256,130.362,41.7-2.992,29.729-3.335,47.873-4.818,49.713-4.049,55.793,40.846,35.672,54.6-17.706,12.092-27.533,11.172-83.779,16.251-8.043.727-1.386,102.143-100.922,248.564-152.6,224.448-384.814,238.49-584.063,65.771" transform="translate(928.901 715.202)" fill="#d9c2c2" stroke="#d9c2c2" stroke-width="40"/>
    <path id="prayers-2" data-name="prayers" d="M324.873,912.823c-115.251-99.906-170.618-231.9-177.742-350.309-18.886-314.143,271-383.7,406.39-175.834,66.073,101.457,82.969,231.778,83.161,232.093,34.546-143.593,110.968-316.517,245.613-378.953,220.674-102.308,451.9,262.742,182.079,620.833-165.924,220.208-350.611,243.979-403.11,255.372-10.417,2.264-17.033-4.255-16.951-7.069.247-8.688,106.1-7.329,233.027-98.423,481.783-345.752,221.456-938.146-44.415-714.26C714.092,396.343,654.69,550.066,646.07,698.806c-.37,6.451-2.072,8.7-8.482,9.5-7.123.892-10.774-2.045-11.941-9.594-15.88-103.337-40.956-213.853-86.826-294.8C433.8,218.547,193.522,245.5,167.472,488.028c-41.436,386.022,463.94,738.6,676.241,372.667,45.115-77.767,69.9-172.059,69.9-260.326-23.964,1.235-48.615.522-72.044-3.6-46.254-8.139-76.861-62.6,73.512-62.6,0-7.892,1.043-67.322,1.894-96.076.714-24.747,13.135-40.105,38.856-36,56.164,8.976,50.18,89.8,54.256,130.362,41.7-2.992,29.729-3.335,47.873-4.818,49.713-4.049,55.793,40.846,35.672,54.6-17.706,12.092-27.533,11.172-83.779,16.251-8.043.727-1.386,102.143-100.921,248.564-152.6,224.448-384.814,238.49-584.063,65.771" transform="translate(895.895 718.412)" fill="#9a5f58" stroke="#fff" stroke-width="10"/>
  </g>
</svg>
